<?xml version="1.0" encoding="utf-8"?>
<!-- Generator: Adobe Illustrator 24.3.0, SVG Export Plug-In . SVG Version: 6.00 Build 0)  -->
<svg version="1.1" id="Layer_1" xmlns="http://www.w3.org/2000/svg" xmlns:xlink="http://www.w3.org/1999/xlink" x="0px" y="0px"
	 viewBox="0 0 1110.71 245.31" style="enable-background:new 0 0 1110.71 245.31;" xml:space="preserve">
<style type="text/css">
	.st0{fill:#3953A4;}
	.st1{font-family:'Chalkduster';}
	.st2{font-size:120px;}
	.st3{fill:#ED2024;}
	.st4{fill:#6ABD45;}
	.st5{letter-spacing:-6;}
	.st6{fill:#FAA41A;}
	.st7{fill:#FFFFFF;stroke:#6ABD45;stroke-width:13.6986;stroke-miterlimit:10;}
	.st8{fill:#FFFFFF;stroke:#3953A4;stroke-width:13.6986;stroke-miterlimit:10;}
	.st9{fill:none;stroke:#FAA41A;stroke-width:13.6986;stroke-miterlimit:10;}
	.st10{fill:#683695;}
</style>
<text transform="matrix(1 0 0 1 467.6018 147.5051)"><tspan x="0" y="0" class="st0 st1 st2">Papa</tspan><tspan x="324.86" y="0" class="st3 st1 st2">+</tspan></text>
<text transform="matrix(1 -5.070000e-03 5.070000e-03 1 45.1584 150.1254)"><tspan x="0" y="0" class="st4 st1 st2 st5">Daddy</tspan><tspan x="397.22" y="0" class="st6 st1 st2 st5">,</tspan></text>
<polygon class="st7" points="1023.21,69.26 953.91,48.42 885.09,69.23 954.09,97.61 "/>
<polygon class="st8" points="960.91,219.67 1037.02,174.9 1037.02,78.38 960.91,109.39 "/>
<g>
	<polygon class="st9" points="947.14,219.67 871.03,174.9 871.03,78.38 947.14,109.39 	"/>
	<polygon class="st10" points="894.57,173.81 882.34,167.87 882.34,95.7 892.41,107.19 	"/>
	<polygon class="st10" points="935.09,196.5 920.29,188.38 921.18,123.17 936.22,116.02 	"/>
	<polygon class="st10" points="934.22,129.57 936.22,116.02 904.36,127.43 907.94,138.9 	"/>
	<polygon class="st10" points="907.94,138.9 885.09,113.5 888.91,103.42 913.97,130.44 	"/>
</g>
<polygon class="st10" points="1022.53,114.74 978.39,132.47 974.89,120.54 1023.04,101.26 "/>
<polygon class="st10" points="1012.41,146.86 980.71,161.27 976.24,151.34 1013.19,136.54 "/>
<polygon class="st10" points="984.38,120.42 984.72,186.73 975.68,194.7 975.31,120.46 "/>
<polygon class="st10" points="1023.21,166.98 975.68,194.7 979.97,176.58 1022.97,154.84 "/>
</svg>
