<?xml version="1.0" encoding="utf-8"?>
<!-- Generator: Adobe Illustrator 24.3.0, SVG Export Plug-In . SVG Version: 6.00 Build 0)  -->
<svg version="1.1" id="Layer_1" xmlns="http://www.w3.org/2000/svg" xmlns:xlink="http://www.w3.org/1999/xlink" x="0px" y="0px"
	 viewBox="0 0 1110.71 245.31" style="enable-background:new 0 0 1110.71 245.31;" xml:space="preserve">
<style type="text/css">
	.st0{fill:url(#SVGID_1_);}
	.st1{fill:#8DC63F;}
	.st2{fill:#ED2224;}
	.st3{fill:#ED2024;}
	.st4{fill:#FFFFFF;stroke:#6ABD45;stroke-width:20;stroke-miterlimit:10;}
	.st5{fill:#FFFFFF;stroke:#3953A4;stroke-width:20;stroke-miterlimit:10;}
	.st6{fill:none;stroke:#FAA41A;stroke-width:20;stroke-miterlimit:10;}
	.st7{fill:#683695;}
	.st8{fill:#FFFFFF;stroke:#6ABD45;stroke-width:13.6986;stroke-miterlimit:10;}
	.st9{fill:#FFFFFF;stroke:#3953A4;stroke-width:13.6986;stroke-miterlimit:10;}
	.st10{fill:none;stroke:#FAA41A;stroke-width:13.6986;stroke-miterlimit:10;}
	.st11{fill:none;stroke:#3953A4;stroke-width:20;stroke-miterlimit:10;}
	.st12{fill:#FFFFFF;stroke:#FAA41A;stroke-width:20;stroke-miterlimit:10;}
	.st13{fill:#FFFFFF;stroke:#6ABD45;stroke-width:6.6389;stroke-miterlimit:10;}
	.st14{fill:#FFFFFF;stroke:#3953A4;stroke-width:6.6389;stroke-miterlimit:10;}
	.st15{fill:#FFFFFF;stroke:#FAA41A;stroke-width:6.6389;stroke-miterlimit:10;}
	.st16{fill:#FFFFFF;stroke:#6ABD45;stroke-width:31.5053;stroke-miterlimit:10;}
	.st17{fill:#FFFFFF;stroke:#3953A4;stroke-width:31.5053;stroke-miterlimit:10;}
	.st18{fill:#FFFFFF;stroke:#FAA41A;stroke-width:31.5053;stroke-miterlimit:10;}
	.st19{fill:#FFFFFF;stroke:#6ABD45;stroke-width:9.6233;stroke-miterlimit:10;}
	.st20{fill:#FFFFFF;stroke:#3953A4;stroke-width:9.6233;stroke-miterlimit:10;}
	.st21{fill:#FFFFFF;stroke:#FAA41A;stroke-width:9.6233;stroke-miterlimit:10;}
	.st22{fill:#3953A4;}
	.st23{font-family:'Chalkduster';}
	.st24{font-size:120px;}
	.st25{fill:#6ABD45;}
	.st26{letter-spacing:-6;}
	.st27{fill:#FAA41A;}
</style>
<g>
	
		<radialGradient id="SVGID_1_" cx="-1063.0736" cy="313.7311" r="62.2399" gradientTransform="matrix(0.593 -0.0137 0.0135 0.6059 -1048.6019 169.924)" gradientUnits="userSpaceOnUse">
		<stop  offset="0" style="stop-color:#FDC70C"/>
		<stop  offset="1" style="stop-color:#F3903F"/>
	</radialGradient>
	<path class="st0" d="M-1640.67,360.07c7.84,19.23-1.07,41.3-19.88,49.3c-18.82,8-40.42-1.1-48.26-20.33
		c-7.84-19.23,1.07-41.3,19.88-49.3S-1648.51,340.85-1640.67,360.07z"/>
	<path class="st1" d="M-1721.73,330.64c0,0,6.43,7.48,16.03,9.97c9.6,2.49,18.74-0.95,18.74-0.95s-6.43-7.48-16.03-9.97
		C-1712.59,327.2-1721.73,330.64-1721.73,330.64z"/>
	<path class="st1" d="M-1686.68,338.92c0,0,11.46-2.28,16.77-10.83c5.31-8.54,2.45-20.11,2.45-20.11s-11.46,2.28-16.77,10.83
		C-1689.54,327.35-1686.68,338.92-1686.68,338.92z"/>
</g>
<path class="st2" d="M-1746.72,658.33c-5.91-0.28-10.76,4.37-11.38,10.28l0,0l0,0c-8.79-6.31-28.11-0.7-29.28,5.1
	c-2.48,12.29,20.89,16.95,31.03,16.9l15.76,0.47c1.46,0.21,18.7-1.09,18.86-2.56l-5.89-15.82
	C-1730.37,666.51-1737.34,658.62-1746.72,658.33L-1746.72,658.33z"/>
<polygon class="st3" points="-1758.3,629.71 -1783.81,629.71 -1774.31,585.65 -1763.05,585.65 "/>
<polygon class="st3" points="-1729.76,603.45 -1715.87,611.91 -1826.24,611.91 -1812.73,603.45 "/>
<text transform="matrix(1 0 0 1 -2725.6267 213.566)"><tspan x="0" y="0" class="st22 st23 st24">Papa</tspan><tspan x="324.86" y="0" class="st3 st23 st24">+</tspan></text>
<text transform="matrix(1 -5.070000e-03 5.070000e-03 1 -2771.4036 91.477)"><tspan x="0" y="0" class="st25 st23 st24 st26">Daddy</tspan><tspan x="397.22" y="0" class="st27 st23 st24 st26">,</tspan></text>
<polygon class="st4" points="-2070.87,30.43 -2172.06,0 -2272.53,30.39 -2171.79,71.82 "/>
<polygon class="st5" points="-2161.83,250.04 -2050.72,184.66 -2050.72,43.75 -2161.83,89.01 "/>
<g>
	<polygon class="st6" points="-2181.94,250.04 -2293.05,184.66 -2293.05,43.75 -2181.94,89.01 	"/>
	<polygon class="st7" points="-2258.69,183.08 -2276.54,174.41 -2276.54,69.04 -2261.84,85.8 	"/>
	<polygon class="st7" points="-2199.53,216.2 -2221.13,204.34 -2219.84,109.14 -2197.87,98.69 	"/>
	<polygon class="st7" points="-2200.8,118.48 -2197.87,98.69 -2244.39,115.36 -2239.17,132.11 	"/>
	<polygon class="st7" points="-2239.17,132.11 -2272.53,95.01 -2266.95,80.3 -2230.36,119.76 	"/>
</g>
<polygon class="st7" points="-2071.86,96.83 -2136.3,122.72 -2141.43,105.29 -2071.12,77.14 "/>
<polygon class="st7" points="-2086.64,143.72 -2132.93,164.77 -2139.45,150.27 -2085.5,128.67 "/>
<polygon class="st7" points="-2127.56,105.12 -2127.07,201.94 -2140.26,213.57 -2140.81,105.19 "/>
<polygon class="st7" points="-2070.87,173.1 -2140.26,213.57 -2134,187.11 -2071.23,155.38 "/>
<path class="st2" d="M-2155.31,20.35c-4.35-3.71-10.83-3.04-14.83,1.08l-1.57,1.61l-1.57-1.61c-3.99-4.12-10.47-4.79-14.83-1.08
	c-4.99,4.26-5.25,11.9-0.79,16.52l15.38,15.88c0.99,1.03,2.61,1.03,3.6,0l15.38-15.88C-2150.05,32.26-2150.32,24.61-2155.31,20.35
	L-2155.31,20.35z"/>
<text transform="matrix(1 0 0 1 -1741.4249 865.3475)" style="font-family:'Maku-Regular'; font-size:170px; letter-spacing:-8;">,</text>
<g>
	<text transform="matrix(1 0 0 1 -2684.2947 637.7469)"><tspan x="0" y="0" class="st22 st23 st24">Papa</tspan><tspan x="324.86" y="0" class="st3 st23 st24">+</tspan></text>
	<text transform="matrix(1 -5.070000e-03 5.070000e-03 1 -3106.738 640.3672)"><tspan x="0" y="0" class="st25 st23 st24 st26">Daddy</tspan><tspan x="397.22" y="0" class="st27 st23 st24 st26">,</tspan></text>
	<polygon class="st8" points="-2128.68,559.5 -2197.99,538.66 -2266.81,559.47 -2197.81,587.85 	"/>
	<polygon class="st9" points="-2190.99,709.92 -2114.88,665.14 -2114.88,568.63 -2190.99,599.63 	"/>
	<g>
		<polygon class="st10" points="-2204.76,709.92 -2280.86,665.14 -2280.86,568.63 -2204.76,599.63 		"/>
		<polygon class="st7" points="-2257.33,664.06 -2269.55,658.12 -2269.55,585.94 -2259.49,597.43 		"/>
		<polygon class="st7" points="-2216.8,686.74 -2231.6,678.62 -2230.72,613.41 -2215.67,606.26 		"/>
		<polygon class="st7" points="-2217.68,619.81 -2215.67,606.26 -2247.54,617.67 -2243.96,629.14 		"/>
		<polygon class="st7" points="-2243.96,629.14 -2266.81,603.74 -2262.98,593.66 -2237.92,620.68 		"/>
	</g>
	<polygon class="st7" points="-2129.37,604.98 -2173.5,622.71 -2177.01,610.78 -2128.86,591.5 	"/>
	<polygon class="st7" points="-2139.48,637.1 -2171.19,651.51 -2175.66,641.58 -2138.7,626.79 	"/>
	<polygon class="st7" points="-2167.51,610.66 -2167.18,676.97 -2176.21,684.94 -2176.59,610.7 	"/>
	<polygon class="st7" points="-2128.68,657.22 -2176.21,684.94 -2171.92,666.82 -2128.93,645.08 	"/>
	<path class="st2" d="M-2186.52,552.6c-2.98-2.54-7.42-2.08-10.16,0.74l-1.07,1.1l-1.07-1.1c-2.73-2.82-7.17-3.28-10.16-0.74
		c-3.42,2.92-3.6,8.15-0.54,11.32l10.53,10.88c0.68,0.7,1.79,0.7,2.47,0l10.53-10.88C-2182.92,560.75-2183.1,555.52-2186.52,552.6
		L-2186.52,552.6z"/>
</g>
<g>
	<text transform="matrix(1 0 0 1 -2696.4834 433.861)" class="st22 st23 st24">Papa+</text>
	<text transform="matrix(1 -5.070000e-03 5.070000e-03 1 -3118.9268 436.4812)"><tspan x="0" y="0" class="st25 st23 st24 st26">Daddy</tspan><tspan x="397.22" y="0" class="st27 st23 st24 st26">,</tspan></text>
	<text transform="matrix(1 0 0 1 -2306.2896 433.861)" class="st7 st23 st24">Me</text>
</g>
<g>
	<polygon class="st4" points="-1828.53,304.25 -1929.72,273.81 -2030.2,304.2 -1929.46,345.63 	"/>
	<polygon class="st11" points="-1919.5,523.85 -1808.38,458.48 -1808.38,317.56 -1919.5,362.83 	"/>
	<g>
		<polygon class="st6" points="-1939.6,523.85 -2050.72,458.48 -2050.72,317.56 -1939.6,362.83 		"/>
		<polygon class="st7" points="-2016.35,456.89 -2034.2,448.22 -2034.2,342.85 -2019.51,359.62 		"/>
		<polygon class="st7" points="-1957.19,490.01 -1978.8,478.15 -1977.5,382.95 -1955.54,372.51 		"/>
		<polygon class="st7" points="-1958.47,392.29 -1955.54,372.51 -2002.06,389.17 -1996.83,405.92 		"/>
		<polygon class="st7" points="-1996.83,405.92 -2030.2,368.83 -2024.61,354.11 -1988.02,393.57 		"/>
	</g>
	<polygon class="st7" points="-1829.53,370.64 -1893.97,396.53 -1899.09,379.11 -1828.79,350.96 	"/>
	<polygon class="st7" points="-1844.3,417.54 -1890.59,438.58 -1897.11,424.08 -1843.16,402.48 	"/>
	<polygon class="st7" points="-1885.22,378.93 -1884.73,475.75 -1897.92,487.38 -1898.47,379 	"/>
	<polygon class="st7" points="-1828.53,446.91 -1897.92,487.38 -1891.67,460.93 -1828.89,429.19 	"/>
	<path class="st2" d="M-1912.97,294.17c-4.35-3.71-10.83-3.04-14.83,1.08l-1.57,1.61l-1.57-1.61c-3.99-4.12-10.47-4.79-14.83-1.08
		c-4.99,4.26-5.25,11.9-0.79,16.52l15.38,15.88c0.99,1.03,2.61,1.03,3.6,0l15.38-15.88
		C-1907.72,306.07-1907.98,298.43-1912.97,294.17L-1912.97,294.17z"/>
</g>
<g>
	<polygon class="st4" points="-1877.78,784.18 -1978.97,753.74 -2079.45,784.13 -1978.71,825.56 	"/>
	<polygon class="st5" points="-1968.74,1003.78 -1857.63,938.41 -1857.63,797.49 -1968.74,842.76 	"/>
	<g>
		<polygon class="st12" points="-1988.85,1003.78 -2099.96,938.41 -2099.96,797.49 -1988.85,842.76 		"/>
		<polygon class="st7" points="-2065.6,936.82 -2083.45,928.15 -2083.45,822.78 -2068.76,839.55 		"/>
		<polygon class="st7" points="-2006.44,969.94 -2028.05,958.08 -2026.75,862.88 -2004.78,852.44 		"/>
		<polygon class="st7" points="-2007.72,872.22 -2004.78,852.44 -2051.31,869.1 -2046.08,885.85 		"/>
		<polygon class="st7" points="-2046.08,885.85 -2079.45,848.76 -2073.86,834.04 -2037.27,873.5 		"/>
	</g>
	<polygon class="st7" points="-1878.78,850.57 -1943.22,876.46 -1948.34,859.04 -1878.03,830.89 	"/>
	<polygon class="st7" points="-1893.55,897.47 -1939.84,918.51 -1946.36,904.01 -1892.41,882.41 	"/>
	<polygon class="st7" points="-1934.47,858.86 -1933.98,955.68 -1947.17,967.31 -1947.72,858.93 	"/>
	<polygon class="st7" points="-1877.78,926.84 -1947.17,967.31 -1940.91,940.86 -1878.14,909.12 	"/>
	<path class="st2" d="M-1962.22,774.1c-4.35-3.71-10.83-3.04-14.83,1.08l-1.57,1.61l-1.57-1.61c-3.99-4.12-10.47-4.79-14.83-1.08
		c-4.99,4.26-5.25,11.9-0.79,16.52l15.38,15.88c0.99,1.03,2.61,1.03,3.6,0l15.38-15.88C-1956.97,786-1957.23,778.36-1962.22,774.1
		L-1962.22,774.1z"/>
</g>
<g>
	<polygon class="st13" points="-2496.59,937.97 -2530.18,927.87 -2563.53,937.95 -2530.09,951.71 	"/>
	<polygon class="st14" points="-2526.78,1010.87 -2489.9,989.17 -2489.9,942.39 -2526.78,957.42 	"/>
	<g>
		<polygon class="st15" points="-2533.45,1010.87 -2570.34,989.17 -2570.34,942.39 -2533.45,957.42 		"/>
		<polygon class="st7" points="-2558.93,988.64 -2564.86,985.76 -2564.86,950.78 -2559.98,956.35 		"/>
		<polygon class="st7" points="-2539.29,999.63 -2546.47,995.7 -2546.04,964.1 -2538.74,960.63 		"/>
		<polygon class="st7" points="-2539.72,967.2 -2538.74,960.63 -2554.19,966.16 -2552.45,971.72 		"/>
		<polygon class="st7" points="-2552.45,971.72 -2563.53,959.41 -2561.67,954.52 -2549.53,967.62 		"/>
	</g>
	<polygon class="st7" points="-2496.92,960.01 -2518.31,968.6 -2520.01,962.82 -2496.67,953.48 	"/>
	<polygon class="st7" points="-2501.82,975.58 -2517.19,982.56 -2519.35,977.75 -2501.44,970.58 	"/>
	<polygon class="st7" points="-2515.4,962.76 -2515.24,994.9 -2519.62,998.76 -2519.8,962.78 	"/>
	<polygon class="st7" points="-2496.59,985.33 -2519.62,998.76 -2517.54,989.98 -2496.71,979.45 	"/>
	<path class="st2" d="M-2524.62,934.62c-1.45-1.23-3.6-1.01-4.92,0.36l-0.52,0.54l-0.52-0.54c-1.32-1.37-3.48-1.59-4.92-0.36
		c-1.66,1.41-1.74,3.95-0.26,5.48l5.1,5.27c0.33,0.34,0.87,0.34,1.2,0l5.1-5.27C-2522.87,938.58-2522.96,936.04-2524.62,934.62
		L-2524.62,934.62z"/>
</g>
<polygon class="st16" points="-2247.42,1158.05 -2406.81,1110.11 -2565.09,1157.98 -2406.4,1223.24 "/>
<polygon class="st17" points="-2390.71,1503.98 -2215.67,1401 -2215.67,1179.03 -2390.71,1250.33 "/>
<g>
	<polygon class="st18" points="-2422.38,1503.98 -2597.41,1401 -2597.41,1179.03 -2422.38,1250.33 	"/>
</g>
<polygon class="st19" points="-2845.77,1341.61 -2894.45,1326.97 -2942.8,1341.59 -2894.33,1361.53 "/>
<polygon class="st20" points="-2889.53,1447.28 -2836.07,1415.83 -2836.07,1348.02 -2889.53,1369.8 "/>
<g>
	<polygon class="st21" points="-2899.21,1447.28 -2952.67,1415.83 -2952.67,1348.02 -2899.21,1369.8 	"/>
</g>
<polygon class="st3" points="-145.05,672.28 -170.56,672.28 -161.06,628.22 -149.8,628.22 "/>
<polygon class="st3" points="-116.51,646.02 -102.62,654.48 -212.99,654.48 -199.47,646.02 "/>
<text transform="matrix(1 0 0 1 -1112.3727 256.1346)"><tspan x="0" y="0" class="st22 st23 st24">Papa</tspan><tspan x="324.86" y="0" class="st3 st23 st24">+</tspan></text>
<text transform="matrix(1 -5.070000e-03 5.070000e-03 1 -1158.1495 134.0456)"><tspan x="0" y="0" class="st25 st23 st24 st26">Daddy</tspan><tspan x="397.22" y="0" class="st27 st23 st24 st26">,</tspan></text>
<polygon class="st4" points="-457.62,73 -558.8,42.57 -659.28,72.96 -558.54,114.39 "/>
<polygon class="st5" points="-548.58,292.6 -437.46,227.23 -437.46,86.32 -548.58,131.58 "/>
<g>
	<polygon class="st6" points="-568.68,292.6 -679.8,227.23 -679.8,86.32 -568.68,131.58 	"/>
	<polygon class="st7" points="-645.43,225.65 -663.28,216.98 -663.28,111.61 -648.59,128.37 	"/>
	<polygon class="st7" points="-586.27,258.77 -607.88,246.91 -606.58,151.71 -584.62,141.26 	"/>
	<polygon class="st7" points="-587.55,161.05 -584.62,141.26 -631.14,157.93 -625.91,174.67 	"/>
	<polygon class="st7" points="-625.91,174.67 -659.28,137.58 -653.69,122.87 -617.1,162.33 	"/>
</g>
<polygon class="st7" points="-458.61,139.4 -523.05,165.29 -528.17,147.86 -457.87,119.71 "/>
<polygon class="st7" points="-473.38,186.29 -519.67,207.34 -526.19,192.84 -472.24,171.23 "/>
<polygon class="st7" points="-514.31,147.69 -513.81,244.51 -527.01,256.13 -527.55,147.76 "/>
<polygon class="st7" points="-457.62,215.67 -527.01,256.13 -520.75,229.68 -457.97,197.95 "/>
<text transform="matrix(1 0 0 1 -1071.0406 680.3156)"><tspan x="0" y="0" class="st22 st23 st24">Papa</tspan><tspan x="324.86" y="0" class="st3 st23 st24">+</tspan></text>
<text transform="matrix(1 -5.070000e-03 5.070000e-03 1 -1493.4841 682.9359)"><tspan x="0" y="0" class="st25 st23 st24 st26">Daddy</tspan><tspan x="397.22" y="0" class="st27 st23 st24 st26">,</tspan></text>
<polygon class="st8" points="-515.43,602.07 -584.74,581.23 -653.55,602.04 -584.56,630.42 "/>
<polygon class="st9" points="-577.73,752.48 -501.63,707.71 -501.63,611.19 -577.73,642.2 "/>
<g>
	<polygon class="st10" points="-591.5,752.48 -667.61,707.71 -667.61,611.19 -591.5,642.2 	"/>
	<polygon class="st7" points="-644.07,706.62 -656.3,700.68 -656.3,628.51 -646.23,640 	"/>
	<polygon class="st7" points="-603.55,729.31 -618.35,721.19 -617.46,655.98 -602.42,648.83 	"/>
	<polygon class="st7" points="-604.43,662.38 -602.42,648.83 -634.28,660.24 -630.7,671.71 	"/>
	<polygon class="st7" points="-630.7,671.71 -653.55,646.31 -649.73,636.23 -624.67,663.25 	"/>
</g>
<polygon class="st7" points="-516.11,647.55 -560.25,665.28 -563.76,653.35 -515.6,634.07 "/>
<polygon class="st7" points="-526.23,679.67 -557.93,694.08 -562.4,684.15 -525.45,669.35 "/>
<polygon class="st7" points="-554.26,653.23 -553.92,719.54 -562.96,727.51 -563.33,653.27 "/>
<polygon class="st7" points="-515.43,699.79 -562.96,727.51 -558.67,709.39 -515.68,687.65 "/>
<g>
	<text transform="matrix(1 0 0 1 -1142.0529 437.413)" class="st22 st23 st24">Papa+</text>
	<text transform="matrix(1 -5.070000e-03 5.070000e-03 1 -1564.4963 440.0332)"><tspan x="0" y="0" class="st25 st23 st24 st26">Daddy</tspan><tspan x="397.22" y="0" class="st27 st23 st24 st26">,</tspan></text>
	<text transform="matrix(1 0 0 1 -751.8591 437.4131)" class="st7 st23 st24">Me</text>
</g>
<polygon class="st4" points="-215.28,346.81 -316.47,316.38 -416.94,346.77 -316.2,388.2 "/>
<polygon class="st11" points="-306.24,566.42 -195.13,501.05 -195.13,360.13 -306.24,405.4 "/>
<g>
	<polygon class="st6" points="-326.35,566.42 -437.46,501.05 -437.46,360.13 -326.35,405.4 	"/>
	<polygon class="st7" points="-403.1,499.46 -420.95,490.79 -420.95,385.42 -406.25,402.19 	"/>
	<polygon class="st7" points="-343.94,532.58 -365.54,520.72 -364.25,425.52 -342.28,415.08 	"/>
	<polygon class="st7" points="-345.21,434.86 -342.28,415.08 -388.8,431.74 -383.58,448.49 	"/>
	<polygon class="st7" points="-383.58,448.49 -416.94,411.4 -411.36,396.68 -374.77,436.14 	"/>
</g>
<polygon class="st7" points="-216.27,413.21 -280.71,439.1 -285.84,421.67 -215.53,393.53 "/>
<polygon class="st7" points="-231.05,460.1 -277.34,481.15 -283.86,466.65 -229.91,445.05 "/>
<polygon class="st7" points="-271.97,421.5 -271.48,518.32 -284.67,529.95 -285.22,421.57 "/>
<polygon class="st7" points="-215.28,489.48 -284.67,529.95 -278.41,503.5 -215.64,471.76 "/>
<g>
	<polygon class="st4" points="-264.53,826.74 -365.71,796.31 -466.19,826.7 -365.45,868.13 	"/>
	<polygon class="st5" points="-355.49,1046.35 -244.37,980.97 -244.37,840.06 -355.49,885.33 	"/>
	<g>
		<polygon class="st12" points="-375.59,1046.35 -486.71,980.97 -486.71,840.06 -375.59,885.33 		"/>
		<polygon class="st7" points="-452.35,979.39 -470.2,970.72 -470.2,865.35 -455.5,882.12 		"/>
		<polygon class="st7" points="-393.19,1012.51 -414.79,1000.65 -413.49,905.45 -391.53,895.01 		"/>
		<polygon class="st7" points="-394.46,914.79 -391.53,895.01 -438.05,911.67 -432.83,928.42 		"/>
		<polygon class="st7" points="-432.83,928.42 -466.19,891.33 -460.61,876.61 -424.02,916.07 		"/>
	</g>
	<polygon class="st7" points="-265.52,893.14 -329.96,919.03 -335.09,901.6 -264.78,873.46 	"/>
	<polygon class="st7" points="-280.3,940.03 -326.58,961.08 -333.11,946.58 -279.16,924.98 	"/>
	<polygon class="st7" points="-321.22,901.43 -320.73,998.25 -333.92,1009.88 -334.47,901.5 	"/>
	<polygon class="st7" points="-264.53,969.41 -333.92,1009.88 -327.66,983.43 -264.89,951.69 	"/>
</g>
<g>
	<polygon class="st13" points="-883.33,980.54 -916.92,970.44 -950.27,980.52 -916.83,994.28 	"/>
	<polygon class="st14" points="-913.53,1053.43 -876.64,1031.73 -876.64,984.96 -913.53,999.98 	"/>
	<g>
		<polygon class="st15" points="-920.2,1053.43 -957.09,1031.73 -957.09,984.96 -920.2,999.98 		"/>
		<polygon class="st7" points="-945.68,1031.21 -951.6,1028.33 -951.6,993.35 -946.73,998.92 		"/>
		<polygon class="st7" points="-926.04,1042.2 -933.21,1038.27 -932.78,1006.67 -925.49,1003.2 		"/>
		<polygon class="st7" points="-926.46,1009.77 -925.49,1003.2 -940.93,1008.73 -939.2,1014.29 		"/>
		<polygon class="st7" points="-939.2,1014.29 -950.27,1001.98 -948.42,997.09 -936.27,1010.19 		"/>
	</g>
	<polygon class="st7" points="-883.66,1002.58 -905.05,1011.17 -906.75,1005.39 -883.42,996.04 	"/>
	<polygon class="st7" points="-888.57,1018.14 -903.93,1025.13 -906.1,1020.32 -888.19,1013.15 	"/>
	<polygon class="st7" points="-902.15,1005.33 -901.99,1037.47 -906.37,1041.33 -906.55,1005.35 	"/>
	<polygon class="st7" points="-883.33,1027.9 -906.37,1041.33 -904.29,1032.55 -883.45,1022.01 	"/>
	<path class="st2" d="M-911.36,977.19c-1.45-1.23-3.6-1.01-4.92,0.36l-0.52,0.54l-0.52-0.54c-1.32-1.37-3.48-1.59-4.92-0.36
		c-1.66,1.41-1.74,3.95-0.26,5.48l5.1,5.27c0.33,0.34,0.87,0.34,1.2,0l5.1-5.27C-909.62,981.14-909.7,978.61-911.36,977.19
		L-911.36,977.19z"/>
</g>
<polygon class="st16" points="-634.17,1200.62 -793.56,1152.68 -951.84,1200.55 -793.15,1265.81 "/>
<polygon class="st17" points="-777.45,1546.55 -602.42,1443.57 -602.42,1221.6 -777.45,1292.9 "/>
<g>
	<polygon class="st18" points="-809.12,1546.55 -984.16,1443.57 -984.16,1221.6 -809.12,1292.9 	"/>
</g>
<polygon class="st19" points="-1232.51,1384.18 -1281.2,1369.54 -1329.54,1384.16 -1281.07,1404.1 "/>
<polygon class="st20" points="-1276.28,1489.85 -1222.81,1458.39 -1222.81,1390.59 -1276.28,1412.37 "/>
<g>
	<polygon class="st21" points="-1285.95,1489.85 -1339.42,1458.39 -1339.42,1390.59 -1285.95,1412.37 	"/>
</g>
<text transform="matrix(1 0 0 1 467.6018 147.5051)"><tspan x="0" y="0" class="st22 st23 st24">Papa</tspan><tspan x="324.86" y="0" class="st3 st23 st24">+</tspan></text>
<text transform="matrix(1 -5.070000e-03 5.070000e-03 1 45.1584 150.1254)"><tspan x="0" y="0" class="st25 st23 st24 st26">Daddy</tspan><tspan x="397.22" y="0" class="st27 st23 st24 st26">,</tspan></text>
<polygon class="st8" points="1023.21,69.26 953.91,48.42 885.09,69.23 954.09,97.61 "/>
<polygon class="st9" points="960.91,219.67 1037.02,174.9 1037.02,78.38 960.91,109.39 "/>
<g>
	<polygon class="st10" points="947.14,219.67 871.03,174.9 871.03,78.38 947.14,109.39 	"/>
	<polygon class="st7" points="894.57,173.81 882.34,167.87 882.34,95.7 892.41,107.19 	"/>
	<polygon class="st7" points="935.09,196.5 920.29,188.38 921.18,123.17 936.22,116.02 	"/>
	<polygon class="st7" points="934.22,129.57 936.22,116.02 904.36,127.43 907.94,138.9 	"/>
	<polygon class="st7" points="907.94,138.9 885.09,113.5 888.91,103.42 913.97,130.44 	"/>
</g>
<polygon class="st7" points="1022.53,114.74 978.39,132.47 974.89,120.54 1023.04,101.26 "/>
<polygon class="st7" points="1012.41,146.86 980.71,161.27 976.24,151.34 1013.19,136.54 "/>
<polygon class="st7" points="984.38,120.42 984.72,186.73 975.68,194.7 975.31,120.46 "/>
<polygon class="st7" points="1023.21,166.98 975.68,194.7 979.97,176.58 1022.97,154.84 "/>
<polygon class="st16" points="396.82,351.86 237.43,303.92 79.15,351.79 237.84,417.05 "/>
<polygon class="st17" points="253.53,697.79 428.57,594.81 428.57,372.84 253.53,444.14 "/>
<g>
	<polygon class="st18" points="221.87,697.79 46.83,594.81 46.83,372.84 221.87,444.14 	"/>
</g>
</svg>
